<?xml version="1.0" standalone="no"?>
<!DOCTYPE svg PUBLIC "-//W3C//DTD SVG 20010904//EN"
 "http://www.w3.org/TR/2001/REC-SVG-20010904/DTD/svg10.dtd">
<svg version="1.0" xmlns="http://www.w3.org/2000/svg"
 width="568.000000pt" height="568.000000pt" viewBox="0 0 568.000000 568.000000"
 preserveAspectRatio="xMidYMid meet">
<metadata>
Created by potrace 1.14, written by Peter Selinger 2001-2017
</metadata>
<g transform="translate(0.000000,568.000000) scale(0.100000,-0.100000)"
fill="#000000" stroke="none">
<path d="M2649 5245 c-2 -1 -33 -6 -69 -10 -36 -4 -73 -9 -82 -11 -10 -2 -28
-6 -40 -9 -50 -11 -154 -48 -200 -71 -26 -13 -50 -25 -53 -25 -6 -1 -134 -65
-171 -87 -59 -34 -139 -96 -198 -151 -47 -46 -216 -244 -299 -353 -24 -31
-164 -321 -172 -356 -2 -9 -20 -62 -40 -117 -19 -55 -35 -100 -34 -100 0 0 -2
-7 -5 -15 -48 -144 -83 -297 -91 -391 -3 -41 -10 -87 -15 -104 -16 -55 -23
-135 -11 -135 6 0 11 8 11 18 0 16 70 102 83 102 3 0 -2 -21 -10 -47 -17 -52
-24 -324 -10 -418 4 -27 10 -72 13 -100 3 -27 14 -95 24 -150 10 -55 21 -120
24 -145 3 -25 8 -56 11 -70 2 -13 7 -42 11 -64 3 -22 7 -43 9 -46 1 -3 6 -30
9 -61 4 -31 9 -67 11 -80 3 -13 7 -39 9 -59 3 -19 10 -71 16 -115 10 -75 18
-185 24 -315 3 -69 -20 -194 -45 -242 -12 -23 -15 -39 -9 -43 6 -3 10 -1 10 4
0 6 4 11 9 11 5 0 44 35 87 78 100 98 126 119 253 204 105 70 226 136 361 198
105 47 287 120 303 120 4 0 -15 -33 -41 -72 -42 -62 -62 -98 -121 -218 -5 -8
-34 -64 -66 -125 -176 -334 -315 -611 -315 -630 0 -4 -17 -52 -39 -108 -21
-56 -42 -111 -46 -122 -5 -11 -10 -29 -12 -40 -2 -11 -10 -38 -19 -61 -14 -37
-24 -45 -117 -92 -56 -28 -111 -59 -122 -69 -11 -10 -37 -31 -58 -46 -40 -30
-44 -43 -24 -71 12 -16 31 -19 159 -20 164 -1 178 -6 178 -65 0 -43 8 -56 36
-65 36 -11 81 54 104 152 12 51 13 53 40 47 21 -5 34 -1 50 15 11 11 26 18 32
14 8 -5 9 -2 5 9 -4 12 2 21 21 31 59 31 125 135 158 247 29 101 55 154 103
207 36 40 39 41 43 20 2 -13 4 -139 3 -280 l0 -257 23 6 22 5 1 -153 c0 -85 1
-197 2 -249 l2 -95 291 -3 292 -2 0 145 c-1 80 2 148 4 151 5 4 23 -60 43
-151 2 -11 12 -48 21 -83 l16 -62 315 0 c295 0 314 1 309 18 -11 39 -28 109
-33 132 -2 14 -11 48 -19 77 -8 29 -17 65 -20 80 -3 15 -12 53 -21 83 -27 91
-41 174 -25 151 7 -9 12 -10 16 -2 4 6 5 14 3 19 -3 4 -8 32 -11 63 -4 31 -8
65 -10 75 -2 11 -7 46 -10 79 -4 33 -9 68 -12 77 -12 40 -15 62 -29 203 -21
215 -23 245 -18 245 3 0 28 -20 55 -45 28 -25 55 -45 61 -45 13 0 105 -76 130
-107 10 -13 24 -29 30 -36 12 -13 19 -25 59 -96 44 -77 106 -151 128 -151 5 0
12 0 15 0 3 0 18 -6 35 -15 16 -8 38 -15 50 -15 11 0 33 -11 48 -25 15 -14 30
-25 34 -25 4 0 19 -5 35 -12 15 -6 33 -12 38 -12 32 -4 52 -22 72 -64 12 -26
35 -76 51 -112 62 -136 94 -126 96 30 1 58 5 100 11 101 6 1 23 3 40 5 51 6
125 26 131 35 3 5 12 9 21 9 26 0 139 58 167 87 64 64 24 85 -189 98 -268 16
-291 23 -287 90 2 25 -5 43 -26 67 -16 18 -49 65 -74 103 -25 39 -59 86 -77
105 -17 19 -83 107 -146 195 -63 88 -127 175 -142 194 -16 19 -57 70 -93 115
-36 44 -123 138 -193 209 -71 71 -125 132 -122 135 4 4 11 0 16 -9 5 -9 26
-20 46 -24 21 -4 76 -20 122 -36 46 -16 91 -29 100 -29 9 0 30 -7 46 -16 17
-9 62 -27 100 -39 78 -26 160 -57 220 -84 34 -16 78 -32 95 -36 3 -1 22 -9 44
-18 21 -9 42 -17 47 -17 5 0 9 -4 9 -10 0 -5 5 -10 11 -10 14 0 241 -99 253
-110 5 -5 15 -6 22 -3 17 6 9 68 -11 93 -11 15 -47 89 -67 140 -21 52 -45 165
-54 250 -2 14 -5 149 -8 300 -2 151 -7 329 -11 395 -3 66 -8 167 -10 225 -12
299 -21 435 -36 525 -6 33 -12 74 -15 90 -13 77 -55 264 -67 299 -8 21 -19 41
-25 45 -15 9 -36 71 -76 221 -55 207 -110 302 -255 448 -59 59 -127 121 -151
137 -25 17 -53 37 -63 46 -21 19 -230 124 -267 135 -14 3 -63 27 -110 53 -47
26 -101 54 -120 63 -193 90 -260 107 -435 107 -73 0 -135 -2 -136 -4z"/>
</g>
</svg>
